<svg width="301" height="224" viewBox="0 0 301 224" fill="none" xmlns="http://www.w3.org/2000/svg">
    <style type="text/css">
        <![CDATA[
 .blink{
  transition: .3s;
  animation-name:blink;
  animation-direction: normal;
  animation-iteration-count: infinite;
  animation-play-state: running;
  animation-fill-mode: forwards;
  animation-duration: 1.5s;
}
@keyframes blink {
  0%{
  opacity: 1;
}
  50%{opacity: 0}
  100%{opacity: 1}
}

]]>
    </style>
    <path d="M118.42 135.332L103.316 126.612L101.302 125.449L86.1974 116.729L95.4947 111.361L110.599 120.082L112.613 121.245L127.717 129.965L118.42 135.332Z" fill="#CAE9F8"/>
<path d="M242.445 116.182C240.651 117.538 239.684 120.214 238.999 123.342C239.987 126.038 241.719 128.065 244.127 129.482L249.849 137.323C251.38 139.346 253.7 140.698 256.363 141.757C258.908 142.373 261.603 142.398 264.43 141.908C268.102 140.718 269.249 139.453 270.408 137.237C269.761 135.023 266.681 132.483 262.707 130.083L257.194 123.43L256.959 116.439L246.794 111.606L242.445 116.182Z" fill="#9DC7D8"/>
<path d="M284.258 106.009L283.821 105.039L284.258 106.009Z" fill="#A2C8DA"/>
<path d="M91.5123 73.164C91.5123 76.2252 93.9938 78.7065 97.0545 78.7065C100.116 78.7065 102.597 76.2252 102.597 73.164C102.597 70.1027 100.116 67.6214 97.0545 67.6214C93.9938 67.6214 91.5123 70.1027 91.5123 73.164Z" fill="#142251"/>
<path d="M94.2561 69.2303C94.2552 71.5658 99.8034 71.6591 99.7005 69.2303V63.4969H94.2552L94.2561 69.2303Z" fill="#AFB4C4"/>
<path d="M94.6163 77.8727C96.6425 76.7118 93.9651 71.8531 91.9094 73.1501L73.153 83.8923L75.8607 88.6149L94.6163 77.8727Z" fill="#AFB4C4"/>
<path d="M91.6028 61.2653C92.1554 64.2762 95.0445 66.2688 98.0554 65.7157C101.065 65.1637 103.059 62.275 102.506 59.2641C101.953 56.2544 99.064 54.2607 96.0531 54.8138C93.0431 55.3658 91.0501 58.2544 91.6028 61.2653Z" fill="#142251"/>
<path d="M107.996 60.1076L107.551 62.1388L95.4505 61.1516L86.6465 58.0807L87.1038 56.4569L107.996 60.1076Z" fill="#142251"/>
<path d="M129.899 33.0967L142.579 37.7518L143.806 44.4456L140.066 51.4845L137.525 52.2026L135.696 52.0044L134.009 58.577L129.381 61.8119L91.1447 58.7656L79.7666 54.6893L77.218 49.3697L79.098 42.0221L77.4533 41.4015L78.3955 33.5126L84.2103 29.5521L129.899 33.0967Z" fill="white"/>
<path d="M129.381 61.8119L134.009 58.577L95.6099 55.6808L91.1449 58.7656L129.381 61.8119Z" fill="#142251"/>
<path d="M95.6098 55.6808L91.1447 58.7656L79.7666 54.6893L77.218 49.3697L79.098 42.0221L80.9515 35.0979L85.2235 31.9863L95.6719 35.7935L97.9882 41.2182L97.4362 48.4897L95.6098 55.6808Z" fill="#AFB4C4"/>
<path d="M135.697 52.0044L134.01 58.577L95.6103 55.6809L97.4367 48.4898L99.0756 49.1961L135.697 52.0044Z" fill="#142251"/>
<path d="M143.806 44.4456L99.7872 41.0767L99.0755 49.1961L135.697 52.0044L137.525 52.2026L140.067 51.4845L143.806 44.4456Z" fill="#AFB4C4"/>
<path d="M85.223 31.9863L84.2817 31.6561L79.7129 34.6959L79.0974 42.0221L80.951 35.0979L85.223 31.9863Z" fill="#142251"/>
<path d="M143.806 44.4456L142.578 37.7518L96.6921 34.1589L99.7865 41.0767L143.806 44.4456Z" fill="#AFB4C4"/>
<path d="M76.9736 81.2534V97.834L74.0457 99.5662L65.673 94.9475V78.4076L68.8488 76.5522L76.9736 81.2534Z" fill="#06090A"/>
<path d="M74.0448 99.5662V82.9652L76.9727 81.2534V97.834L74.0448 99.5662Z" fill="#142251"/>
<path d="M76.9736 81.2533L74.0457 82.9651L65.673 78.4075L68.8488 76.5522L76.9736 81.2533Z" fill="white"/>
<path d="M74.7557 0.499939V224L45.7332 224L45.7326 0.499939H74.7557Z" fill="#AFB4C4"/>
<path d="M76.9086 118.183V134.767L68.7537 139.51L65.4783 137.804V121.288L73.9067 116.409L76.9086 118.183Z" fill="#AFB4C4"/>
<path d="M76.9085 118.183V134.767L68.7535 139.51V122.733L76.9085 118.183Z" fill="white"/>
<path d="M95.3529 138.624L73.9755 126.407C72.1781 125.462 69.6755 130.24 71.416 131.252L93.5273 144.219L95.3529 138.624Z" fill="#AFB4C4"/>
<path d="M91.2972 143.088C91.2972 146.17 93.7959 148.667 96.8763 148.667C99.9579 148.667 102.455 146.17 102.455 143.088C102.455 140.006 99.9579 137.509 96.8763 137.509C93.7959 137.509 91.2972 140.006 91.2972 143.088Z" fill="#142251"/>
<path d="M99.8053 139.067C99.8053 139.067 99.2029 140.637 96.877 140.465C94.551 140.295 94.2182 139.115 94.1805 138.204C94.142 137.292 94.415 128.421 94.415 128.421L99.8053 139.067Z" fill="#486B7C"/>
<path d="M76.6371 115.82L119.527 160.834L121.679 161.861L132.292 155.823L133.248 154.556L146.487 147.054L147.371 146.092L97.9134 94.2486L95.352 93.1896L83.7666 99.9434L78.1058 105.714L77.1994 112.315L77.9685 113.063L76.6371 115.82Z" fill="white"/>
<path d="M76.6371 115.82L119.527 160.834L121.679 161.861L132.292 155.823L133.248 154.556L78.1058 105.714L77.1993 112.315L77.9685 113.063L76.6371 115.82Z" fill="#AFB4C4"/>
<path d="M147.372 146.096L146.486 147.052L95.3528 93.1886L97.9123 94.2465L147.372 146.096Z" fill="#486B7C"/>
<path d="M83.7684 99.9455L78.1035 105.712L127.411 157.63L134.804 153.676L83.7684 99.9455Z" fill="#AFB4C4"/>
<path d="M68.7537 122.733V139.51L65.4783 137.804V121.288L68.7537 122.733Z" fill="#142251"/>
<path d="M43.2047 96.3173V112.768L51.2947 117.473L54.5438 115.78V99.3968L46.1824 94.5563L43.2047 96.3173Z" fill="#AFB4C4"/>
<path d="M43.2047 96.3173V112.768L51.2947 117.473V100.83L43.2047 96.3173Z" fill="white"/>
<path d="M24.9098 116.593L46.1167 104.474C47.8995 103.538 50.3811 108.277 48.6553 109.281L26.7206 122.145L24.9098 116.593Z" fill="#AFB4C4"/>
<path d="M51.2955 100.83V117.473L54.5446 115.78V99.3968L51.2955 100.83Z" fill="#142251"/>
<path d="M40.0147 77.4161L40.2313 84.1463L28.1581 135.246H27.1085V137.531L22.6138 140.002L8.5213 138.396L4.01316 135.123L3.51914 130.924L2.90153 132.529H0.864564L0 130.554L12.8443 74.5135L18.2162 71.4254L34.2104 73.1554L40.0147 77.4161Z" fill="white"/>
<path d="M40.0147 77.4161L26.985 133.455L20.7276 131.274L4.83678 129.586L0 130.554L0.864564 132.529H2.90153L3.51914 130.924L5.06283 130.41L20.5831 131.912L25.2147 133.621L26.0177 135.205L27.1085 135.246H28.1581L40.2313 84.1463L40.0147 77.4161Z" fill="#142251"/>
<path d="M3.52176 130.927L4.01589 135.126L8.52103 138.396L22.6156 140.002L27.1061 137.531V135.244L26.0196 135.204L25.2136 133.619L24.5612 133.377L22.5662 132.642L20.5849 131.91L8.64451 130.754L5.56709 130.458L5.06256 130.408L3.52176 130.927Z" fill="#AFB4C4"/>
<path d="M5.5676 130.458C6.2836 134.527 11.4964 137.223 16.6141 137.615C21.1494 137.963 23.9601 135.866 24.5617 133.377L22.5667 132.642L20.5855 131.91L8.64502 130.754L5.5676 130.458Z" fill="#142251"/>
<path d="M8.64502 130.754C9.30657 133.277 12.6164 135.204 16.3022 135.204C19.0978 135.204 21.7368 134.568 22.5667 132.642L20.5854 131.909L8.64502 130.754Z" fill="#142251"/>
<path d="M34.2099 73.1555L20.727 131.274L26.9844 133.455L40.0142 77.4161L34.2099 73.1555Z" fill="#AFB4C4"/>
<path d="M18.2162 71.4254L4.83678 129.586L0 130.554L12.8443 74.5135L18.2162 71.4254Z" fill="#AFB4C4"/>
<path d="M197.885 184.383L191.39 195.187C191.39 195.187 190.166 197.891 189.915 202.003C189.663 206.113 186.894 216.432 191.929 218.699C196.962 220.964 204.514 221.131 205.605 214.504C206.695 207.876 204.681 203.923 204.933 202.248C205.185 200.576 205.931 195.206 204.43 191.096C202.928 186.984 197.885 184.383 197.885 184.383Z" fill="#142251"/>
<path d="M282.793 206.421L283.001 217.784L283.501 224L300.499 224C300.499 224 297.56 220.74 294.204 211.456C290.848 202.17 282.793 206.421 282.793 206.421Z" fill="#142251"/>
<path d="M292.016 218.95C284.981 221.125 283.29 218.789 281.115 214.923C278.939 211.057 265.167 174.987 263.153 171.805C261.959 169.911 258.683 163.267 255.099 156.138C252.655 151.278 250.064 146.219 247.891 142.271C243.689 134.633 239.204 134.016 237.459 134.122C236.976 134.136 236.708 134.216 236.708 134.216C231.069 139.238 225.07 167.938 219.028 175.161C212.987 182.37 207.121 194.115 207.121 194.115C207.121 194.115 205.429 198.479 197.885 199.324C190.34 200.156 191.011 191.767 191.011 191.767C190.663 178.516 205.778 162.905 205.778 162.905C206.101 134.043 217.015 108.456 217.015 108.456C217.015 108.456 245.434 108.281 257.153 111.932C259.474 112.658 261.14 113.53 261.811 114.578C265.838 120.953 278.229 162.596 278.766 163.924C283.358 175.362 284.807 180.356 286.149 183.377C286.605 184.396 287.962 187.685 289.545 191.592C292.727 199.351 296.794 209.392 296.794 209.392C296.794 209.392 299.077 216.776 292.016 218.95Z" fill="#AFB4C4"/>
<path d="M185.914 88.6235L179.11 95.6109C179.11 95.6109 174.337 101.769 173.05 102.831C171.764 103.893 168.296 111.11 168.296 111.11L166.225 117.542C165.5 119.303 167.289 119.527 168.239 118.213L168.743 117.263C169.496 117.535 170.03 117.107 170.417 116.198L173.497 109.991L171.708 115.584C171.261 117.263 173.666 117.597 174.464 115.449C174.464 115.449 175.287 110.942 176.686 109.6C178.084 108.257 182.482 106.296 183.548 100.175C183.622 99.7548 187.202 89.6857 187.202 89.6857L185.914 88.6235Z" fill="#DADCE4"/>
<path d="M209.739 74.4792C209.591 75.2842 209.416 76.0495 209.188 76.7612C208.785 78.0507 207.967 79.5009 206.865 81.0433C201.12 89.1927 187.763 99.743 187.266 100.133C181.883 102.267 178.755 94.8843 178.755 94.8843C180.327 90.8562 196.77 66.4789 196.77 66.4789V59.3103C196.77 48.463 205.939 48.6785 205.939 48.6785L209.188 53.162C209.188 53.162 211.322 66.0351 209.739 74.4792Z" fill="#AFB4C4"/>
<path d="M260.126 113.15C260.126 113.15 253.38 117.826 237.432 121.854C227.378 124.368 219.493 121.533 214.316 115.658C214.316 115.658 212.986 96.2797 212.315 92.7629C212.047 91.3534 210.57 88.4272 208.812 84.9233C208.181 83.6885 207.524 82.3862 206.864 81.0432C204.716 76.6807 202.61 71.9956 201.911 68.4649C201.536 66.5452 201.576 64.4111 201.871 62.277C202.703 55.8598 205.684 49.4029 205.938 48.6783C205.938 48.6783 209.308 46.7983 226.894 49.5637C245.259 52.4502 256.118 58.8396 256.118 58.8396L258.508 79.459L260.126 113.15Z" fill="white"/>
<path d="M219.648 133.099C213.28 133.957 207.808 128.543 207.808 128.543C207.808 128.543 210.992 96.7804 210.325 93.2539C210.058 91.8423 209.563 88.6578 207.808 85.1507C207.179 83.9116 206.55 81.7379 205.901 80.3841C203.747 76.0184 202.603 71.9946 201.917 68.4682C201.535 66.5431 201.11 64.4166 201.237 62.2632C201.676 54.9456 205.692 49.403 205.94 48.6784C205.94 48.6784 208.456 47.3054 220.277 48.6602C219.096 50.6239 217.664 52.3774 216.979 54.0742C216.712 54.7227 216.54 55.3701 216.54 56.0003C218.446 69.3643 220.735 84.7123 221.535 99.5629C221.553 99.7162 221.553 99.8684 221.573 100.001V100.135C222.183 111.86 221.84 123.262 219.648 133.099Z" fill="#AFB4C4"/>
<path d="M241.802 133.195C241.992 128.219 241.421 123.033 240.41 117.714C236.101 95.045 223.632 70.0888 226.359 48.6784C240.963 51.8243 256.119 58.8407 256.119 58.8407L258.503 79.4505L270.151 124.748C270.151 124.748 256.577 129.096 241.802 133.195Z" fill="#AFB4C4"/>
<path d="M210.561 50.8296L212.962 66.8476L214.974 64.0575L220.692 71.2615L221.307 62.2632L229.587 69.2603C229.587 69.2603 228.677 65.4113 228.845 61.887C229.012 58.3638 229.128 49.3194 223.785 46.2056C220.372 44.2184 213.623 43.8422 210.855 45.8637C211.046 48.1822 210.561 50.8296 210.561 50.8296Z" fill="white"/>
<path d="M211.528 55.4611L217.476 66.438L219.888 68.8497L220.29 65.6341C220.29 65.6341 219.774 65.4144 220.29 63.6244C220.804 61.8344 224.623 52.7439 223.151 47.7791C221.841 43.3609 208.156 39.3392 208.156 39.3392L211.141 47.8562L211.528 55.4611Z" fill="#DADCE4"/>
<path d="M247.219 75.983L258.294 94.3419C258.294 94.3419 250.239 119.934 249.568 125.729C249.568 125.729 252.757 131.32 258.294 130.668C258.294 130.668 276.584 101.992 274.235 90.7501C271.885 79.5063 261.65 64.5184 256.113 58.8408L247.219 75.983Z" fill="#AFB4C4"/>
<path d="M250.127 126.072C250.127 126.072 255.357 126.072 256.699 129.679C256.699 129.679 254.35 134.797 254.35 136.643C254.35 138.49 253.162 144.945 251.917 146.208C250.672 147.471 248.647 153.138 248.589 153.265C247.945 154.682 247.058 154.454 246.7 153.862L245.876 155.353C245.254 156.668 243.583 156.188 244.065 154.934L246.716 147.327L243.247 154.654C242.437 156.556 240.73 155.903 241.261 154.039L244.534 144.922L244.065 144.614L240.674 152.752C240.059 154.375 238.382 153.647 238.968 151.773C238.968 151.773 242.52 141.482 242.576 140.363C242.632 139.244 242.884 136.726 240.758 137.595C240.758 137.595 237.346 141.258 235.64 141.201C233.934 141.146 233.487 140.698 234.017 140.027C234.549 139.356 237.415 137.541 238.577 135.972C239.738 134.403 242.046 132.197 244.757 130.994C247.47 129.79 250.127 126.072 250.127 126.072Z" fill="#DADCE4"/>
<path d="M217.834 66.8872L220.235 71.0139C220.235 71.0139 225.764 77.1346 226.857 85.7316C227.848 93.5257 224.46 103.713 223.609 106.563L227.74 113.195L231.951 105.798C231.951 105.798 234.466 93.7713 231.951 83.7219C230.47 77.8028 224.561 73.8822 222.578 69.9806C222.418 69.345 221.306 62.2632 221.306 62.2632L219.306 67.4563L217.834 66.8872Z" fill="#142251"/>
<path d="M226.993 47.7963L226.451 47.5465C226.465 47.5465 226.479 47.5465 226.491 47.5465C226.683 47.5465 226.872 47.5476 227.058 47.5497C227.037 47.6323 227.016 47.7148 226.993 47.7963Z" fill="#D9CEC9"/>
<path d="M225.286 52.8179C225.021 50.1843 224.754 48.5229 224.573 47.5829C225.217 47.5604 225.845 47.5465 226.452 47.5465L226.994 47.7962C226.5 49.6355 225.921 51.3226 225.286 52.8179Z" fill="#142251"/>
<path d="M225.164 45.7136C225.164 45.7136 224.053 50.105 222.073 51.9861C220.092 53.8662 214.316 56.2768 214.316 56.2768C211.895 57.7335 207.877 55.7816 207.471 53.5007L205.037 41.4122L204.805 38.6104C204.805 38.6104 205.111 30.7108 207.832 27.7631C210.554 24.8155 215.219 22.2988 220.331 23.241C225.443 24.1831 229.717 26.8606 230.364 32.281C231.949 45.5582 225.164 45.7136 225.164 45.7136Z" fill="#DADCE4"/>
<path d="M225.803 48.5508C224.884 48.2646 224.274 47.4703 225.163 45.7135L226.017 38.8226C225.023 38.4421 221.905 37.7207 220.283 30.6153C213.737 32.7987 206.963 29.7396 205.157 35.1536C202.926 34.2778 204.627 28.0664 206.188 26.0556C207.902 23.8497 211.913 21.5238 218.447 21.9493C225.172 22.3866 228.516 24.8734 230.898 30.6164C233.282 36.3594 228.922 47.2013 225.803 48.5508Z" fill="#142251"/>
<path d="M228.5 36.6156C229.079 37.114 229.109 37.9865 229.073 38.7497C229.032 39.5996 228.961 40.455 228.71 41.2685C228.459 42.0799 228.014 42.8538 227.338 43.3705C226.693 43.8614 225.713 44.0629 225.098 43.5355C224.632 43.1347 224.527 42.4594 224.514 41.8441C224.49 40.6233 224.624 39.0466 225.257 37.964C225.843 36.9618 227.311 35.593 228.5 36.6156Z" fill="#DADCE4"/>
<path class="blink" d="M231.464 17L242.54 19.7931L247 20.9176L246.536 25.2473L245.387 36L240.928 34.8743L242.077 24.1228L231 21.3297L231.464 17Z" fill="#142251"/>
<path  class="blink" d="M191 22.8192L192.14 11.5403L192.599 7L197.02 8.17949L208 11.1106L207.542 15.6509L196.561 12.7211L195.421 24L191 22.8192Z" fill="#142251"/>
<path  class="blink" d="M202.536 61L191.461 58.2069L187 57.0812L187.465 52.7527L188.613 42L193.074 43.1257L191.925 53.8772L203 56.6715L202.536 61Z" fill="#142251"/>
<path  class="blink" d="M243 56.1102L241.86 66.7252L241.401 71L236.98 69.8886L226 67.1309L226.458 62.8561L237.439 65.615L238.579 55L243 56.1102Z" fill="#142251"/>
</svg>
