<svg width="258" height="183" viewBox="0 0 258 183" fill="none" xmlns="http://www.w3.org/2000/svg">
<path d="M8 67H0.0608415L0 66.9571V65.0425L0.0608415 65H8V67Z" fill="#142251"/>
<path d="M10 72H4.04562L4 71.9571V70.0425L4.04562 70H10V72Z" fill="#989EB1"/>
<path d="M181.381 0L234.614 30.9975C237.388 32.7671 235.62 36 232.632 36L31.1273 31.7176L14 9.28307L181.381 0Z" fill="#989EB1"/>
<path d="M178.766 44.5183L177 1L222 27.304L220.39 59L178.766 44.5183Z" fill="#F3F6F9"/>
<path d="M180.543 42L226.51 60.0733C228.909 61.0192 228.251 64.1181 225.68 63.9965L36.3476 55.0227L13 42H180.543Z" fill="#989EB1"/>
<path d="M181 0L13 9.38298L13.1087 42H180.726L181 0Z" fill="#989EB1"/>
<path d="M20.0795 38L20 13.8995L126.899 7L127 37.4478L20.0795 38Z" fill="white"/>
<path d="M8 183H204V136H8V183Z" fill="#142251"/>
<path d="M12.5 136.5H207.5V91.5H12.5V136.5Z" fill="#F3F6F9" stroke="#989EB1"/>
<path d="M17 91H212V75H17V91Z" fill="#989EB1"/>
<path d="M8 79H204V63H8V79Z" fill="#142251"/>
<mask id="path-12-inside-1_0_5638" fill="white">
<path d="M209 56H13C13.6358 53.0463 13.6358 49.9532 13 47L209 51.4997V56Z"/>
</mask>
<path d="M209 56H13C13.6358 53.0463 13.6358 49.9532 13 47L209 51.4997V56Z" fill="#F3F6F9"/>
<path d="M13 56V57H11.7619L12.0224 55.7896L13 56ZM13 47L12.0224 47.2105L11.7556 45.9712L13.023 46.0003L13 47ZM209 51.4997L209.023 50.5L210 50.5224V51.4997H209ZM209 57H13V55H209V57ZM12.0224 55.7896C12.6283 52.9745 12.6283 50.0249 12.0224 47.2105L13.9776 46.7895C14.6432 49.8814 14.6432 53.118 13.9776 56.2104L12.0224 55.7896ZM13.023 46.0003L209.023 50.5L208.977 52.4994L12.977 47.9997L13.023 46.0003ZM210 51.4997V56H208V51.4997H210Z" fill="#989EB1" mask="url(#path-12-inside-1_0_5638)"/>
<path d="M17.6968 56.5C18.288 58.463 18.2881 60.5373 17.6968 62.5H212.5V56.5H17.6968Z" fill="#F3F6F9" stroke="#142251"/>
<path d="M143 176H21V144H143V176Z" fill="#F3F6F9"/>
<path d="M180.5 151.017C175.246 151.017 170.971 155.496 170.971 161C170.971 166.504 175.246 170.983 180.5 170.983C185.755 170.983 190.029 166.504 190.029 161C190.029 155.496 185.755 151.017 180.5 151.017ZM180.5 172C174.71 172 170 167.066 170 161C170 154.934 174.71 150 180.5 150C186.29 150 191 154.934 191 161C191 167.066 186.29 172 180.5 172Z" fill="#989EB1"/>
<path d="M179.5 103.971C174.245 103.971 169.971 108.246 169.971 113.5C169.971 118.754 174.245 123.029 179.5 123.029C184.755 123.029 189.029 118.754 189.029 113.5C189.029 108.246 184.755 103.971 179.5 103.971ZM179.5 124C173.71 124 169 119.29 169 113.5C169 107.71 173.71 103 179.5 103C185.29 103 190 107.71 190 113.5C190 119.29 185.29 124 179.5 124Z" fill="#142251"/>
<path d="M153 10.9709C147.996 10.9709 143.925 15.2458 143.925 20.5C143.925 25.7548 147.996 30.0291 153 30.0291C158.004 30.0291 162.075 25.7548 162.075 20.5C162.075 15.2458 158.004 10.9709 153 10.9709ZM153 31C147.486 31 143 26.29 143 20.5C143 14.7106 147.486 10 153 10C158.514 10 163 14.7106 163 20.5C163 26.29 158.514 31 153 31Z" fill="white"/>
<path d="M181 26.9665C181 26.9665 192.604 32.3568 224.181 16L258 29.4167C258 29.4167 223.268 49.0965 219.997 47.9519C195.814 39.4912 181 26.9665 181 26.9665Z" fill="white"/>
<path d="M202.43 42.9832L228 52.0953V53L180 38L202.43 42.9832Z" fill="#F0F0F0"/>
<path d="M171 91H129.279C129.18 90.9428 129.081 90.8856 128.981 90.8284H170.592C170.728 90.8851 170.865 90.9433 171 91ZM77.6028 63.0352H76.0727C76.0242 63.0117 76 63 76 63C76.5265 63.0044 77.06 63.0161 77.6028 63.0352Z" fill="#CCCCCC"/>
<path d="M196.313 115C174.599 97.8912 150.074 84.9191 123.903 76.6983L76 63H254L196.313 115Z" fill="white"/>
<path d="M25.5 103.5V109.851C28.2299 110.846 30.176 113.52 30.176 116.655C30.176 119.79 28.23 122.464 25.5 123.458V130.5H62.5V103.5H25.5Z" fill="white" stroke="#989EB1"/>
<path d="M53 127H52V106H53V127Z" fill="#142251"/>
<path d="M60 127H55V106H60V127Z" fill="#989EB1"/>
</svg>
