<svg width="1330" height="227" fill="none" xmlns="http://www.w3.org/2000/svg"><circle cx="642" cy="59" r="4" fill="#142251"/><ellipse cx="651.505" cy="40.713" rx="11.5" ry="8" transform="rotate(25.844 651.505 40.713)" fill="#AFB4C4"/><path d="M661.405 45.508c-.872 1.8-2.732 2.969-5.126 3.347-2.391.378-5.266-.047-8.044-1.392-2.777-1.346-4.893-3.338-6.079-5.449-1.187-2.113-1.423-4.297-.551-6.096.872-1.8 2.732-2.969 5.126-3.347 2.391-.378 5.266.047 8.043 1.392 2.778 1.345 4.893 3.338 6.079 5.448 1.187 2.113 1.423 4.297.552 6.097z" stroke="#142251" stroke-opacity=".44"/><mask id="a" fill="#fff"><path fill-rule="evenodd" clip-rule="evenodd" d="M660.814 34.11l-9.9-4.795-4.233 8.739-.018.036-.017.036-.185.382.05.024c-.344 1.584 1.192 3.673 3.685 4.88 2.494 1.208 5.085 1.118 6.115-.133l.05.024 4.453-9.193z"/></mask><path fill-rule="evenodd" clip-rule="evenodd" d="M660.814 34.11l-9.9-4.795-4.233 8.739-.018.036-.017.036-.185.382.05.024c-.344 1.584 1.192 3.673 3.685 4.88 2.494 1.208 5.085 1.118 6.115-.133l.05.024 4.453-9.193z" fill="#AFB4C4"/><path d="M650.914 29.315l.436-.9-.9-.436-.436.9.9.436zm9.9 4.795l.9.436.436-.9-.9-.436-.436.9zm-14.133 3.944l.891.454.005-.009.004-.01-.9-.435zm-.035.072l.9.436.005-.009.004-.01-.909-.417zm-.185.382l-.9-.436-.436.9.9.436.436-.9zm.05.024l.977.212.167-.77-.708-.342-.436.9zm9.8 4.747l.436-.9-.709-.343-.5.607.773.636zm.05.024l-.436.9.9.436.436-.9-.9-.436zm-5.883-13.088l9.9 4.795.872-1.8-9.9-4.795-.872 1.8zm-2.897 8.275l4.233-8.739-1.8-.872-4.233 8.739 1.8.872zm-.018.036l.009-.018-1.782-.909a13.95 13.95 0 00-.027.055l1.8.872zm-.008.018l.008-.018-1.8-.872-.026.055 1.818.835zm-.194.4l.185-.382-1.8-.871-.185.38 1.8.873zm-.414-1.312l-.05-.024-.872 1.8.05.024.872-1.8zm3.685 4.88c-1.123-.544-1.998-1.272-2.542-1.998-.559-.747-.688-1.37-.602-1.77l-1.954-.424c-.257 1.184.209 2.397.955 3.393.761 1.015 1.901 1.936 3.272 2.6l.871-1.8zm4.906.131c-.259.316-.829.601-1.761.625-.908.023-2.021-.211-3.145-.755l-.871 1.8c1.37.663 2.798.987 4.067.954 1.244-.032 2.485-.417 3.255-1.353l-1.545-1.27zm1.259-.24l-.05-.024-.872 1.8.05.024.872-1.8zm3.117-8.729l-4.453 9.193 1.8.872 4.453-9.193-1.8-.872z" fill="#142251" fill-opacity=".44" mask="url(#a)"/><ellipse cx="658.263" cy="26.763" rx="9.5" ry="7.5" transform="rotate(25.844 658.263 26.763)" fill="#AFB4C4"/><path d="M666.363 30.686c-1.641 3.386-6.573 4.595-11.152 2.377-4.578-2.218-6.688-6.837-5.048-10.223 1.64-3.386 6.573-4.595 11.151-2.377 4.579 2.218 6.689 6.837 5.049 10.223z" stroke="#142251" stroke-opacity=".44"/><ellipse cx="655.549" cy="24.337" rx="4" ry="3.5" transform="rotate(25.844 655.549 24.337)" fill="#E4E7F1"/><path fill="#9DA7CA" d="M646.668 47.258l1.8.872-5.667 11.7-1.8-.872z"/><circle cx="999" cy="221" r="4" fill="#142251"/><ellipse cx="1008.5" cy="202.713" rx="11.5" ry="8" transform="rotate(25.844 1008.5 202.713)" fill="#AFB4C4"/><path d="M1018.4 207.508c-.87 1.8-2.73 2.969-5.12 3.347-2.39.378-5.27-.047-8.04-1.392-2.78-1.346-4.9-3.338-6.084-5.449-1.187-2.112-1.423-4.297-.551-6.096.872-1.8 2.735-2.969 5.125-3.347 2.39-.378 5.27.047 8.04 1.392 2.78 1.345 4.9 3.338 6.08 5.449 1.19 2.112 1.43 4.296.55 6.096z" stroke="#142251" stroke-opacity=".44"/><mask id="b" fill="#fff"><path fill-rule="evenodd" clip-rule="evenodd" d="M1017.81 196.11l-9.9-4.795-4.23 8.739c0 .012-.01.024-.02.036 0 .012-.01.024-.01.036l-.19.382.05.024c-.34 1.584 1.19 3.673 3.69 4.88 2.49 1.208 5.08 1.118 6.11-.133l.05.024 4.45-9.193z"/></mask><path fill-rule="evenodd" clip-rule="evenodd" d="M1017.81 196.11l-9.9-4.795-4.23 8.739c0 .012-.01.024-.02.036 0 .012-.01.024-.01.036l-.19.382.05.024c-.34 1.584 1.19 3.673 3.69 4.88 2.49 1.208 5.08 1.118 6.11-.133l.05.024 4.45-9.193z" fill="#AFB4C4"/><path d="M1007.91 191.315l.44-.9-.9-.436-.44.9.9.436zm9.9 4.795l.9.436.44-.9-.9-.436-.44.9zm-14.13 3.944l.89.454.01-.009v-.009l-.9-.436zm-.03.072l.9.436v-.018l-.9-.418zm-.19.382l-.9-.436-.43.9.9.436.43-.9zm.05.024l.98.212.17-.769-.71-.343-.44.9zm9.8 4.747l.44-.9-.71-.343-.5.607.77.636zm.05.024l-.43.9.9.436.43-.9-.9-.436zm-5.88-13.088l9.9 4.795.87-1.8-9.9-4.795-.87 1.8zm-2.9 8.275l4.23-8.739-1.8-.872-4.23 8.739 1.8.872zm-.02.036c.01-.006.01-.012.01-.018l-1.78-.909-.03.055 1.8.872zm-.01.018c.01-.006.01-.012.01-.018l-1.8-.872c-.01.018-.01.037-.02.055l1.81.835zm-.19.4l.19-.382-1.8-.872-.19.382 1.8.872zm-.41-1.312l-.05-.024-.87 1.8.05.024.87-1.8zm3.68 4.88c-1.12-.544-2-1.272-2.54-1.998-.56-.747-.69-1.371-.6-1.77l-1.96-.424c-.25 1.184.21 2.397.96 3.393.76 1.016 1.9 1.936 3.27 2.599l.87-1.8zm4.91.131c-.26.316-.83.601-1.76.625-.91.023-2.02-.211-3.15-.756l-.87 1.8c1.37.664 2.8.988 4.07.955 1.24-.032 2.48-.417 3.25-1.353l-1.54-1.271zm1.26-.24l-.05-.024-.88 1.8.06.024.87-1.8zm3.11-8.729l-4.45 9.193 1.8.872 4.45-9.193-1.8-.872z" fill="#142251" fill-opacity=".44" mask="url(#b)"/><ellipse cx="1015.26" cy="188.763" rx="9.5" ry="7.5" transform="rotate(25.844 1015.26 188.763)" fill="#AFB4C4"/><path d="M1023.36 192.686c-1.64 3.386-6.57 4.595-11.15 2.377s-6.69-6.837-5.05-10.223c1.64-3.386 6.58-4.595 11.15-2.377 4.58 2.218 6.69 6.837 5.05 10.223z" stroke="#142251" stroke-opacity=".44"/><ellipse cx="1012.55" cy="186.337" rx="4" ry="3.5" transform="rotate(25.844 1012.55 186.337)" fill="#E4E7F1"/><path fill="#9DA7CA" d="M1003.67 209.259l1.8.872-5.667 11.7-1.8-.872z"/><circle cx="1300" cy="100" r="4" fill="#142251"/><ellipse cx="1309.5" cy="81.713" rx="11.5" ry="8" transform="rotate(25.844 1309.5 81.713)" fill="#AFB4C4"/><path d="M1319.4 86.508c-.87 1.8-2.73 2.969-5.12 3.347-2.39.378-5.27-.047-8.04-1.392-2.78-1.346-4.9-3.338-6.08-5.449-1.19-2.112-1.43-4.297-.55-6.096.87-1.8 2.73-2.969 5.12-3.347 2.39-.378 5.27.047 8.04 1.392 2.78 1.345 4.9 3.338 6.08 5.449 1.19 2.112 1.43 4.296.55 6.096z" stroke="#142251" stroke-opacity=".44"/><mask id="c" fill="#fff"><path fill-rule="evenodd" clip-rule="evenodd" d="M1318.81 75.11l-9.9-4.795-4.23 8.739c0 .012-.01.024-.02.036 0 .012-.01.024-.01.036l-.19.382.05.024c-.34 1.584 1.19 3.672 3.69 4.88 2.49 1.208 5.08 1.118 6.11-.133l.05.024 4.45-9.193z"/></mask><path fill-rule="evenodd" clip-rule="evenodd" d="M1318.81 75.11l-9.9-4.795-4.23 8.739c0 .012-.01.024-.02.036 0 .012-.01.024-.01.036l-.19.382.05.024c-.34 1.584 1.19 3.672 3.69 4.88 2.49 1.208 5.08 1.118 6.11-.133l.05.024 4.45-9.193z" fill="#AFB4C4"/><path d="M1308.91 70.315l.44-.9-.9-.436-.44.9.9.436zm9.9 4.795l.9.436.44-.9-.9-.436-.44.9zm-14.13 3.944l.89.454.01-.009v-.01l-.9-.435zm-.03.072l.9.436v-.019l-.9-.417zm-.19.382l-.9-.436-.43.9.9.436.43-.9zm.05.024l.98.212.17-.77-.71-.342-.44.9zm9.8 4.747l.44-.9-.71-.343-.5.607.77.636zm.05.024l-.43.9.9.436.43-.9-.9-.436zm-5.88-13.088l9.9 4.795.87-1.8-9.9-4.795-.87 1.8zm-2.9 8.275l4.23-8.739-1.8-.872-4.23 8.739 1.8.872zm-.02.036c.01-.006.01-.012.01-.018l-1.78-.909-.03.055 1.8.872zm-.01.018c.01-.006.01-.012.01-.018l-1.8-.872c-.01.018-.01.037-.02.055l1.81.835zm-.19.4l.19-.382-1.8-.871-.19.38 1.8.873zm-.41-1.312l-.05-.024-.87 1.8.05.024.87-1.8zm3.68 4.88c-1.12-.544-2-1.272-2.54-1.998-.56-.747-.69-1.37-.6-1.77l-1.96-.424c-.25 1.184.21 2.397.96 3.393.76 1.016 1.9 1.936 3.27 2.6l.87-1.8zm4.91.131c-.26.316-.83.601-1.76.625-.91.023-2.02-.211-3.15-.755l-.87 1.8c1.37.663 2.8.987 4.07.954 1.24-.032 2.48-.417 3.25-1.353l-1.54-1.27zm1.26-.24l-.05-.024-.88 1.8.06.024.87-1.8zm3.11-8.729l-4.45 9.193 1.8.872 4.45-9.193-1.8-.872z" fill="#142251" fill-opacity=".44" mask="url(#c)"/><ellipse cx="1316.26" cy="67.763" rx="9.5" ry="7.5" transform="rotate(25.844 1316.26 67.763)" fill="#AFB4C4"/><path d="M1324.36 71.686c-1.64 3.386-6.57 4.594-11.15 2.377-4.58-2.218-6.69-6.837-5.05-10.223 1.64-3.386 6.58-4.595 11.15-2.377 4.58 2.218 6.69 6.837 5.05 10.223z" stroke="#142251" stroke-opacity=".44"/><ellipse cx="1313.55" cy="65.337" rx="4" ry="3.5" transform="rotate(25.844 1313.55 65.337)" fill="#E4E7F1"/><path fill="#9DA7CA" d="M1304.67 88.258l1.8.872-5.667 11.7-1.8-.872z"/><path d="M10 45l632 15.5 356 161m.5 0L1300 100" opacity=".44" stroke="#142251"/><circle cx="10" cy="44" r="4" fill="#142251"/><ellipse cx="19.505" cy="25.713" rx="11.5" ry="8" transform="rotate(25.844 19.505 25.713)" fill="#AFB4C4"/><path d="M29.405 30.508c-.872 1.8-2.732 2.969-5.126 3.347-2.391.378-5.266-.047-8.044-1.392-2.777-1.346-4.893-3.338-6.079-5.449-1.187-2.113-1.423-4.297-.55-6.096.87-1.8 2.731-2.969 5.124-3.347 2.392-.378 5.267.046 8.044 1.392 2.778 1.345 4.893 3.338 6.08 5.448 1.186 2.113 1.422 4.297.55 6.097z" stroke="#142251" stroke-opacity=".44"/><mask id="d" fill="#fff"><path fill-rule="evenodd" clip-rule="evenodd" d="M28.814 19.11l-9.9-4.795-4.233 8.739a2.022 2.022 0 00-.035.072l-.185.382.05.024c-.343 1.584 1.192 3.672 3.685 4.88 2.494 1.208 5.085 1.118 6.115-.133l.05.024 4.453-9.193z"/></mask><path fill-rule="evenodd" clip-rule="evenodd" d="M28.814 19.11l-9.9-4.795-4.233 8.739a2.022 2.022 0 00-.035.072l-.185.382.05.024c-.343 1.584 1.192 3.672 3.685 4.88 2.494 1.208 5.085 1.118 6.115-.133l.05.024 4.453-9.193z" fill="#AFB4C4"/><path d="M18.914 14.315l.436-.9-.9-.436-.436.9.9.436zm9.9 4.795l.9.436.436-.9-.9-.436-.436.9zM14.68 23.054l.891.454.005-.009.004-.01-.9-.435zm-.035.072l.9.436.005-.009.004-.01-.909-.417zm-.185.382l-.9-.436-.435.9.9.436.435-.9zm.05.024l.977.212.167-.77-.708-.342-.436.9zm9.8 4.747l.436-.9-.709-.343-.5.607.773.636zm.05.024l-.436.9.9.436.436-.9-.9-.436zm-5.883-13.088l9.9 4.795.872-1.8-9.9-4.795-.872 1.8zM15.58 23.49l4.233-8.739-1.8-.872-4.233 8.739 1.8.872zm-.018.036l.01-.018-1.783-.909-.027.055 1.8.872zm-.008.018a.94.94 0 01.008-.018l-1.8-.872a3.94 3.94 0 00-.026.055l1.818.835zm-.194.4l.185-.382-1.8-.872-.185.382 1.8.872zm-.414-1.312l-.05-.024-.872 1.8.05.024.872-1.8zm3.685 4.88c-1.123-.544-1.998-1.272-2.542-1.998-.559-.747-.688-1.37-.602-1.77l-1.954-.424c-.257 1.184.21 2.397.955 3.393.761 1.015 1.901 1.936 3.271 2.6l.872-1.8zm4.906.131c-.26.316-.829.601-1.761.625-.908.023-2.021-.211-3.145-.756l-.872 1.8c1.37.664 2.8.988 4.068.955 1.244-.032 2.485-.417 3.255-1.353l-1.544-1.27zm1.26-.24l-.051-.024-.872 1.8.05.024.872-1.8zm3.116-8.729l-4.453 9.193 1.8.872 4.453-9.193-1.8-.872z" fill="#142251" fill-opacity=".44" mask="url(#d)"/><ellipse cx="26.263" cy="11.763" rx="9.5" ry="7.5" transform="rotate(25.844 26.263 11.763)" fill="#AFB4C4"/><path d="M34.363 15.686c-1.64 3.386-6.573 4.595-11.152 2.377-4.578-2.218-6.688-6.837-5.048-10.223 1.64-3.386 6.573-4.595 11.151-2.377 4.579 2.218 6.689 6.837 5.049 10.223z" stroke="#142251" stroke-opacity=".44"/><g filter="url(#filter0_f_0_2946)"><ellipse cx="23.549" cy="9.337" rx="4" ry="3.5" transform="rotate(25.844 23.549 9.337)" fill="#E4E7F1"/></g><path fill="#9DA7CA" d="M14.668 32.258l1.8.872-5.667 11.7-1.8-.872z"/><defs><filter id="filter0_f_0_2946" x="15.638" y="1.736" width="15.822" height="15.202" filterUnits="userSpaceOnUse" color-interpolation-filters="sRGB"><feFlood flood-opacity="0" result="BackgroundImageFix"/><feBlend in="SourceGraphic" in2="BackgroundImageFix" result="shape"/><feGaussianBlur stdDeviation="2" result="effect1_foregroundBlur_0_2946"/></filter></defs></svg>